<svg xmlns="http://www.w3.org/2000/svg" viewBox="0 0 750 883"><g fill="none" stroke="#68758d" stroke-width="2"><path d="M400.26 50.02c-67.17-2.43-109.29 42.01-133.28 99.11q-.88 2.11-1.45 4.26a2.29 2.28 8.5 0 0 2.13 2.87c6.15.21 12.75-1.3 18.86-2.06 34.14-4.24 68.5-1.02 102.73 3.32 36.98 4.68 72.91 12.79 107.96 25.54 7.73 2.82 7.16-4.55 6.71-9.63-5.26-59.07-35.65-120.94-103.66-123.41M600.06 196.58c7.55-4.55 17.02-10.7 20.04-18.01a1.27 1.25-47 0 0-.03-1.04q-2.79-5.57-6.6-10.5-21.78-28.15-47.44-52.81c-5-4.8-23.88-22.05-30.3-21.74a1.81 1.81 0 0 0-1.43 2.79c5.48 8.48 13.26 18.01 17.76 24.45 15.69 22.45 26.79 44.04 39.17 69.73 1.43 2.97 4.72 9.61 8.83 7.13M254.86 202.97c-48.35-10.16-99.02-10.68-146.97 3.04-36.03 10.31-77.7 35.19-74.14 78.93q1.91 23.48 21.93 37.86c7.96 5.71 29.18 17.55 39.06 14.11a1.24 1.21-86.8 0 0 .71-.65c2.41-5.26 2.35-11.76-3.93-14.39-13.74-5.74-36.42-14.08-39.28-31.14-1.25-7.49-2.07-17.61 1.33-24.68 12.16-25.24 40.84-37.89 66.39-45.21 15.63-4.48 26.92-7.12 40.04-7.56q19.02-.64 38.02.02c15.38.54 30.37 2.64 45.4 5.34q44.24 7.95 88.48 15.88c19.26 3.46 43.45 6.63 58.6 8 39.7 3.59 86.54-.58 125.39-13.08 3.12-1 35.24-11.27 24.04-17.47-14.55-8.07-32.82-13.21-48.87-17.51-44.14-11.83-90.21-22.53-135.06-26.94q-57.11-5.62-114.43 6.89c-4.61 1-15.49 3.53-18.4 7.36a2.38 2.38 0 0 0 1.1 3.68q4.46 1.57 9.65 2.2c23.69 2.86 48.72 5.94 70.83 10.87 32.02 7.15 63.49 14.72 96.27 17.76 22.56 2.1 39.45.76 60.66 1.28q2.5.07 3.16 2.12a.92.9 61.4 0 1-.28.98c-5.92 4.86-19.8 6.52-27.32 7.35-37.87 4.19-74.99-2.04-113.42-10.35q-34.46-7.44-68.96-14.69M555.81 242.69c6.35 15.44 21.08 27.14 37.12 30.9 17.67 4.15 23.43-9.91 26.24-23.9.78-3.85 2.06-7.31 4.15-10.12 3.8-5.14 10.01-4.57 14.02-.2 11.84 12.89-5.66 44.32-11.02 57.19-8.43 20.2-7.53 44.45-1.8 64.68 6.06 21.39 22.13 40.58 40.75 52.76 2.2 1.45 9.02 3.92 9.74-.76 2.31-14.97 6.75-29.07 14.85-42.02 10.71-17.12 24.1-35.23 29.83-54.02 3.92-12.87-2.38-23.4-11.35-32.58q-9.14-9.34-18.23-18.73c-7.87-8.13-10.52-16.16-12.94-27.58q-2.62-12.33-5.64-24.56c-2.32-9.35-5.83-17.9-14.91-22.3-11.34-5.51-21.95.54-31.11 8.22-4.29 3.61-8.65 7.22-12.83 10.95-7.23 6.43-13.36 7.21-24.48 9.13-12.53 2.15-29.84 1.91-32.96 17.97q-.47 2.44.57 4.97" vector-effect="non-scaling-stroke"/><path d="m143.35 329.01 1.51-3.69q.2-.47.1-.98c-.77-4.04-2.58-9.02-2.26-12.58.64-7.2 6.75-8.97 11.22-13.4 2.14-2.12 1.45-4.54-1.51-5.09q-19.14-3.52-31.12 11.5c-9.14 11.46-8.54 22.41-6.34 36.2.82 5.1-10.08 15.34-13.48 19.23-27.36 31.31-47.87 71.79-36.82 115.16 1.03 4.04.56 6.32-1.94 9.35-4.7 5.73-14.08 16.48-18.23 25.73-20.08 44.75-2.68 90.27 28.19 124.38 2.25 2.49 11.88 12.48 15.52 9.99 1.54-1.06 1.3-2.98.4-4.55-25.2-43.76-33.99-94.28-15.14-142.4 6.3-16.07 12.63-28.08 21.84-45.32 5.11-9.57-5.52-14.09-10.45-19.92q-8.29-9.78-3.88-22.95c2.73-8.16 18.3-16.02 25.68-18.35 8.8-2.78 10.61-8.34 14.55-15.62 3.33-6.18 11.92-17.32 19.57-17.96q8.94-.75 11.16 7.66 1.81 6.9 3.91 13.69c3.99 12.89 17.89 16.06 29.56 12.96a1.71 1.69-76.3 0 0 .83-.51c3.86-4.36 5.04-9.71 5.73-15.33.8-6.62 6.08-11.07 12.78-10.49q3.04.27 3.66 2.93c.58 2.47-1.35 5.75-2.42 8.14-2.79 6.24-2.55 11.56 2.99 16.28 20.19 17.25 49.86 7.85 73.46 3.29q10.94-2.11 22.05-1.88c4.27.09 8.73 2.18 12.74.01 7.3-3.95 13.56-13.69 17.36-18.93 6.05-8.36 15.04-5.93 19.87 1.79 7.56 12.08 9.05 25.69 11.5 39.39.3 1.7 2.14 5.21 3.19 6.55 10.53 13.56 22.8 27.69 25.2 46.46 1.63 12.74-1.94 28.11-5.93 40.93-5.53 17.75-12.25 36.09-16.55 53.72q-5.86 24.07-5.78 48.91c.06 19.07 1.91 38.44 21.76 47.35q4.09 1.84 11.23 4.43.46.17.87-.08c7.57-4.56 7.66-8.6 7.96-16.82q.84-22.91 3.36-45.69c.93-8.42 3.89-18.74 5.17-26.7q3.43-21.22 4.85-42.68c.21-3.27.58-19.21 7.56-14.58q4.43 2.95 4.86 8.79 1.8 25.01-.77 49.97c-3.18 30.84-6.02 60.94-2.72 91.95 2.31 21.79 28.62 43.57 50.3 43.48 7.22-.03 14.34-.14 20.94-2.48 12.19-4.33 23.36-13.98 31.68-24.13 16.56-20.19 16.41-46.51 16.13-71.24a1.43 1.4-26.4 0 1 .31-.88q9.02-11.29 14.36-23.32c12.57-28.33 18.26-58.53 17.84-89.68q-.42-31.54-5.29-62.75c-.71-4.58 3.02-6.74 6.7-4.54 2.58 1.54 4.64 9.67 5.29 12.55 12.05 52.92 12.19 112.17-10.18 163.79-.41.95-.34 2.8-.14 3.73q.12.54.62.79c4.5 2.22 12.26-3.71 15.52-6.53 11.82-10.24 23.24-23.8 29-38.11 5.24-13.04 7.45-28.8 3.41-42.59-2.04-6.98-8.53-13.88-1.66-20.31 12.27-11.5 23.9-29.03 25.33-46.1 2.56-30.67-20.12-47.47-35.83-70.22-9.88-14.28-8.21-28.93-9.73-47.33-.64-7.78-1.97-18.89-12.19-19.64-4.08-.3-9.5 2.52-13.66 4.21-4.7 1.92-3.85-4.63-3.36-6.75 3.4-14.77 6.71-30.64-3.18-43.82-7.85-10.47-19.98-16.2-33.4-16.12-24.55.14-44.12-.18-65.45 2.1-18.34 1.96-37.54 3.95-55.81 3.31-22.88-.79-46.62-3.74-68.45-8.22-12.35-2.54-25.15-4.65-37.07-7.3q-28.96-6.44-58.14-11.84c-22.98-4.24-46.51-6.22-69.85-7.23q-6.01-.26-9.99.71c-6.73 1.65-6.86 9.34-9.03 13.17q-1.96 3.46-9.26 11.01-11.13 11.51-21.91 23.33-1.06 1.16-1.94 3a1.05 1.05 0 0 0 .02.95c.77 1.49 2.34 1.95 4.01 1.6 6.4-1.33 13.14-3.21 19.24-3.51 12.48-.61 25.04 4.5 36.75 7.76 9.35 2.61 4.3-8.84 2.15-11.89-1.95-2.76-6.96-9.04-5.43-12.41a.92.91 9.5 0 1 .75-.53q1.41-.15 3.12.51c20.07 7.67 12.48 25.81 24.26 38.91 6.37 7.09 15.19 3.43 20.03-3.17q2.9-3.96 5.98-8 1.16-1.53 2.65-.32c2.07 1.67 4.12 7.22 5.08 8.55 6.7 9.25 20.39 11.17 27.81 2.05 5.63-6.93 4.69-25.03 16.15-25.63 3.52-.18 5.01 2.14 5.04 5.33q.08 6.8 2.05 13.18c5.3 17.24 34.53 15.15 47.47 13.71 15.6-1.74 30.49-5.87 45.74-9.32 5.23-1.18 11.28-1.55 16.61-1.66 22.64-.49 45.23.37 67.86.57 5.07.05 8.75-.75 11.96-4.32 6.12-6.82.34-14.3-3.04-20.29a2.05 2.04 67.3 0 1 1.22-2.98c8.08-2.28 17.38 10.01 20.42 16.11 4.28 8.61 2.56 15.32 1.18 23.93-.6 3.74 1.37 5.92 4.03 8.11 15.77 12.96 31.49 26.76 43.35 45.39 1.97 3.1 11.58 18.75 5.35 19.83-2.85.49-6.89-4.21-8.6-6.33-11.1-13.8-24.86-22.36-39.83-31.91a7.11 7.08-85.7 0 1-2.7-3.15c-1.73-3.93-3.13-8.83-5.15-12.26-8.75-14.81-27.83-20.9-44.31-19.62q-.51.04-.59.55c-2.86 17.81-22.82 24.34-38.52 23.55-6.89-.35-18.04-1.18-21.04-8.24-1.34-3.13.31-6.69.99-9.73q.1-.44-.05-.85c-2.91-7.87-12.91 3.84-15.28 7.33q-2.66 3.9-2.27 8.19c1.38 15.2 28.34 15.22 38.43 14.99 19.15-.44 38.03-14.84 53.96-24.84q3.17-2 6.64-.61a.98.97-86.9 0 1 .57.64q2.07 7.59-4.26 11.01-5.04 2.73-8.28 5.49c-7.32 6.22-6.81 15.35-18.43 16.64-11.58 1.28-20.37 2.88-28.07 11.66-1.82 2.07-3.3 4.95-2.68 7.5q2.37 9.72 7.65 24.29c3.38 9.3 4.06 17.97 3.57 27.51q-1.08 21.23-6.06 41.9-.64 2.65-2.06 4.17a2.07 2.07 0 0 1-3.06-.06q-3.15-3.6-2.91-8.59.23-4.96-1.07-23.29-2.08-29.07-15.9-54.62c-15.97-29.54-42.64-42.35-73.01-53.01-38.56-13.55-76.77-18.9-118.53-17.87-21.96.53-46.17 7.84-67.29 15.37a1.93 1.93 0 0 1-2.43-2.56" vector-effect="non-scaling-stroke"/><path d="M152.175 315.24a6.63 5.02 132.1 0 0 8.17-1.555 6.63 5.02 132.1 0 0 .72-8.284 6.63 5.02 132.1 0 0-8.17 1.553 6.63 5.02 132.1 0 0-.72 8.285M424.778 317.651a7.65 5.45-27.3 0 0-9.298-1.334 7.65 5.45-27.3 0 0-4.298 8.352 7.65 5.45-27.3 0 0 9.298 1.334 7.65 5.45-27.3 0 0 4.298-8.352M140.5 368.85q-1.15-.16-2.05.61c-4.13 3.5-8.49 9.98-2.88 14.65q.4.33.87.11c5.42-2.49 6.99-9.41 5.07-14.56a1.28 1.25 83.2 0 0-1.01-.81M335.94 409.06c4.67 3.66 10.58-.32 12.52-4.78 2.34-5.41-.37-11.81-3.33-16.63-4.62-7.51-10.86 12.95-11.55 15.38q-.97 3.43 2.36 6.03M114.44 606.31q3.36 3.43 6.57 5.15c2.18 1.16 4.12.19 3.9-2.45-.54-6.59-3.76-14.08-5.75-20.44-2.42-7.74-10.58-42.64-3.41-47.72q.46-.33.9.03c5.35 4.36 7.25 22.29 8.85 27.99 6.58 23.5 21.47 49.5 44.24 60.65 29.68 14.55 61.28 16.87 89.15-2.68 3.73-2.62 6.92-6.4 10.2-9.77 2.52-2.59 6.16-5 8.42-.58q7.67 15.01 20.08 24.18c12.63 9.32 36.68 15.56 50.82 6.21 3.24-2.14 2.76-6.78 2.38-10.86q-1.41-14.99-3.3-29.93c-.58-4.59-.41-10.1.16-14.66 2.99-23.97 9.16-46.17 16.15-70.42.8-2.74 1.85-7.55-.08-10.05-3.78-4.91-11.16-7.1-17.22-8.38-13.97-2.95-26.56-8.89-38.27-18.06-12.27-9.59-21.72-20.05-34.02-28.23-8.93-5.94-20.22-10.52-30.69-15.01q-1.59-.69-2.71-2.33c-1.05-1.54-.19-3.34 1.52-3.64 12.01-2.09 38.26 10.91 50.2 17.09 19.37 10.03 36.77 23.24 56.37 32.97 6.05 3 18.61 7.3 23.46.79q2-2.68 2.66-8.65c3.28-29.64-32.38-59.47-59.09-63.18-15.35-2.14-30.89-2.14-47.34-.76-14.78 1.24-28.66 2.86-44.2.94-18.31-2.26-37.59-8.09-55.73-12.58-15.56-3.84-33.04-3.93-47.35-3.38q-13.65.52-23.04 11.49c-3.74 4.36-3.39 10.6.72 14.78 10.76 10.94 32.85 4.7 46.03 1.5 6.13-1.48 27.37-5.21 32.19-1.25 6.49 5.35-7.38 9.2-10.34 9.73-12.71 2.3-25.23 3.91-37.06 8.78q-22.73 9.35-34.05 31.52c-10.26 20.12-12.08 38.22-11.73 60.97q.19 12.2 1.57 19.13c3.75 18.96 15.45 37.45 28.84 51.11M591.51 648.37c-1.66 6.37 17 9.25 20.87 9.32a1.76 1.75-71 0 1 1.37 2.81c-2.6 3.46-14.02 2.15-17.98 1.75-6.55-.65-7.8 8.44-.95 9.16q22.38 2.35 44.67-4.66c1.92-.6 6.46-2.53 6.74-4.85.82-6.91-22.54-26.11-28.12-30.28-5.09-3.81-12.8-9.52-18.02-1.99q-5.95 8.59-8.58 18.74M63.97 718.23c-4.03 11.77 37.92 2.82 42.49 1.5 7.73-2.23 17.53-6.02 12.56-16.5q-6.6-13.9-17.58-23.69c-2.06-1.84-5.2-4.84-8.03-4.1-3.52.92-8.41 6.46-10.71 9.27q-12.41 15.06-18.73 33.52M256.13 716.51c27.91 7.56 58.42 8.16 87.22 4.46q9.42-1.21 19.54-4.15c16.07-4.67 29.61-9.67 42.87-17.79q7.23-4.43 9.44-7.59c2.41-3.45-1.56-10.16-3.65-12.75-2.12-2.63-7.42.17-9.73 1.41-41.7 22.57-94.6 29.76-141.03 19.46-28.15-6.25-44.83-10.98-69.39-22.12-2.15-.98-8.99-3.23-9.43.64-.78 6.66 3.26 8.48 8.17 11.25q14.85 8.38 30.45 15.31c2.26 1 4.75 1.48 6.83 2.31q14.07 5.6 28.71 9.56M530.21 751.37c-6.1-.59-12.78-5.16-17.94-8.79-3.55-2.5-7.23-4.23-10.45-.61-3.23 3.65 2.04 8.36 4.82 10.37 14.99 10.83 33.66 16.13 51.79 18.53 1.88.25 4.37.56 5.83-.84 5.72-5.49-9.5-38.6-13.2-45.25-3.3-5.94-9.6-17.6-17.81-15.6-5.89 1.43-17.97 7.97-19.67 14.82-2.17 8.72 12.45 20.17 17.42 25.8q1.59 1.8-.79 1.57M155.98 807.59q1.93.44 2.52.21 25.86-10.39 46.87-28.66c2.82-2.46 8.79-8.28 8.43-12.15-1.46-15.59-42.45-44.62-51.49-25.42-6.23 13.25-8.26 32.27-8.98 46.92-.21 4.18-.48 15.24 1.87 18.58q.29.41.78.52M411.7 800.02c-6.81-.63-16.82-24.24-18.97-30.5-1.35-3.95-5.38-5.29-8.3-2.05-4.53 5.02-1.29 13.52 2.09 18.51q16.64 24.55 41.88 39.9c3.49 2.13 7.88 3.61 10.37-.32q3.64-5.71 7.72-18.44 6.23-19.41 8.05-39.68c1.08-11.97-4.37-19.87-15.79-21.74q-14.22-2.33-28.09 3.69c-3.99 1.74-11.48 7.2-11.18 12.38.69 11.87 7.02 23.63 12.02 34.51q.71 1.53.76 3.21.02.58-.56.53M279.9 812.44a1.17 1.17 0 0 1-2.19.1c-1.69-3.84-2.65-7.79-4.18-11.65-3.75-9.4-3.6-19.82-5.38-29.64q-.13-.77-.86-.48c-3.58 1.44-7.93 4.3-7.78 8.62.78 22.33 13.7 46.95 27.15 63.22 4 4.84 6.56 1.56 9.81-1.41q25.39-23.21 37.17-55.64.94-2.59.07-4.52c-6.18-13.66-23.45-18.54-37.26-19.03q-6.18-.22-10.06 1.63c-3.79 1.81-9.06 6.47-9.4 11.11q-1.17 15.87 2.93 31.96.81 3.17-.02 5.73M335.97 90.22c-14.44 21.63-3.08 42.36 19.86 49.17 8.28 2.46 17.55 2.19 26.31 1.02 3.07-.41 7.39-1.92 11.41-1.94 2.6-.01 5.63.98 8.46 1.3a2.92 2.91-77.7 0 0 3.1-1.99q5.61-17 8.99-34.57a.95.93 24.9 0 0-.35-.92c-1.78-1.36-6.57-3.01-7.37-4.74-2.4-5.16 14.21-7.08 4.41-16.14-7.97-7.38-17.88-12.17-28.87-12.25q-10.6-.07-14.4.81c-12.18 2.8-24.53 9.74-31.55 20.25" vector-effect="non-scaling-stroke"/><path d="M375.91 109.72q-1.78-2.41-.87-4.45c3.18-7.09 10.35-6.5 16.93-6.48 5.09.02 5.19-5.37 2.56-8.07q-13.96-14.32-30.84-2.58c-11.85 8.25-17.39 22.82-3.99 33.22 7.5 5.82 21.62 4.54 28.47-1.93 7.9-7.44-8.82-8.51-11.46-9.18a1.49 1.41-10 0 1-.8-.53M652.24 387.51c1.84 2.36 5.6 6.72 8.56 7.44a.68.67 4.8 0 0 .83-.7c-.63-9.93-4.52-21-7.14-30.64-3.28-12.04-2.72-25.81-2.03-38.14.94-16.67 5.4-34.47 8.42-51.29.51-2.83 7.02-35.84-3.71-31.67q-.48.19-.68.67-.65 1.59-1 4.07c-2.84 19.89-10.64 40.32-16.46 59.76-4.48 14.96-5.21 27.76-4.13 43.92.83 12.59 10.01 27.16 17.34 36.58M242.68 345.84c6.16 3.58-6.06 12.49-7.52 15.31a1 1 0 0 0-.02.87q1.23 2.65 4.16 2.93 22.99 2.19 44.12-6.92c6.01-2.59 10.72-6.31 8.95-13.23-2.69-10.57-21.06-14.98-30.16-17.13-18.43-4.35-38.96-3.97-57.65-1.73-14.22 1.71-25.16 3.59-35.74 11.06-6.15 4.33-5.21 10.43-.31 15.35 2.31 2.32 15.72 13.52 14.71 2.15q-.37-4.14-1.3-8.9a1.51 1.5-13.5 0 1 1.07-1.74c2.54-.71 4.52.63 5.89 2.88 2.95 4.85 8.32 11.47 14.3 12.39 6.15.94 12.95 1.06 18.08-3.12 4.21-3.43 15.82-13.43 21.42-10.17" vector-effect="non-scaling-stroke"/></g><path fill="#031e4d" d="M626.64 615.96c14.9 9.69 31.91 25.2 39.02 42 3.94 9.31 4.16 16.58-5.14 22.05q-7.3 4.29-13.52 5.54c-13.69 2.76-30.52 4.69-44.38 2.54-6.21-.96-9.97 1.45-13.63 6.42q-7.42 10.07-14.72 20.27c-2.36 3.3.72 12.69 2.05 16.28 5.11 13.79 9.22 29.14 9.38 43.93.08 7.59-2.84 13.78-10.88 14.91-18.6 2.6-41.24-5.58-57.32-13.6q-5.76-2.87-11.13-.03c-9.04 4.77-19.61 11.59-29.32 14.49-4.6 1.37-9.54 9.78-10.58 14.26q-4.1 17.65-12.45 33.69c-2.27 4.36-5.75 7.68-9.6 10.21-11.98 7.86-43.44-20.08-52.72-27.63-3.06-2.49-6.2-2.57-10.31-1.79-11.99 2.3-24.26 3.24-36.39 4.51-7.3.77-11.22 3.66-16.1 9.61-7.93 9.69-15.13 18.84-24.66 27.12-7.89 6.87-17.13 9.92-25.33 1.86-12.7-12.48-19.98-27.66-27.97-43.28a1.21 1.18 83.7 0 0-.73-.6q-16.99-5.01-33.51-11.05c-6.18-2.27-12.92-3.76-18.9.35-13.48 9.28-30.16 19.63-46.53 21.04-14.75 1.26-16.31-19.69-16.09-29.31q.35-15.32 2.1-30.54c.3-2.59-.6-4.5-2.19-6.29-5.81-6.53-12.61-12.86-19.4-19.75q-2.99-3.03-6.88-4.79a1.62 1.58-37.7 0 0-.94-.11c-14.83 2.86-33.5 4.67-49.5 3.02-11.15-1.15-19.33-6.68-15.83-19.27 5.74-20.69 16.33-36.72 30.86-52.17 1.37-1.45 2.32-3.13 3.25-4.85a.81.8 41.7 0 0-.05-.85q-3.96-5.6-8.75-10.5c-19.91-20.38-39.45-43.76-46.26-72.21-4.8-20.05-5.17-38.78-.7-58.82 3.81-17.09 14.63-34.45 25.08-48.32a1.04 1.03-35.2 0 0 .17-.94q-2.68-8.72-2.85-14.35c-.59-20.44 1.53-38.1 9.51-56.7q8.79-20.53 22.27-38.31c1.59-2.1 2.82-4.33 3.99-6.56a2.01 2 33.1 0 0-.53-2.49c-1.43-1.14-2.85-2.19-4.58-2.94q-10-4.32-19.7-9.25c-26.16-13.3-48.36-50.14-37.41-79.43 2.44-6.53 4.42-13.64 7.64-19.39 9.9-17.68 25.1-31.05 42.89-40.69q1.05-.57 4.04-1.35c2.46-.65 4.23-2.48 6.27-3.33q34.34-14.25 71.27-18.09c9.79-1.02 13.88-.37 19.58-5.23q2.19-1.87 5.07-6.61c18.61-30.62 39.61-53.68 66.35-77.7 25.26-22.7 56.62-37.26 88.76-47.09 13.17-4.02 28.45-7.02 42.71-10.21 6.27-1.4 9.54-4.34 14.66-8.29 9.54-7.34 19.64-9.81 31.4-11.12 14.76-1.65 29.75 4.96 40.66 14.64q5.16 4.57 11.39 11.61c5.23 5.92 14.92 7.84 22.15 10.47 2.33.84 5.86 2.63 9.05 3.38 3.85.92 7.59 2.28 10.97 3.96q27.82 13.76 42.84 23.41 15.21 9.78 31.12 26.66 24.25 25.76 46.11 53.62 2.65 3.37 7.04 6.98c3.22 2.63 8 2.23 11.84 2.43 29.54 1.52 36.98 27.5 42.41 51.15q2.64 11.49 5.73 22.86.65 2.38 2.21 4.21c8.36 9.75 18.51 19.19 28.3 30.09 8.5 9.47 9.98 19.26 9.48 33.07-.66 18.01-5.98 26.4-16.3 42.76q-6.33 10.04-12.88 19.94c-7.78 11.75-15.74 24.38-15.7 38.97q.01 6.04-1.06 22.35c-.23 3.54-.68 11.83-6.87 8.72-5.27-2.65-17.21-11.24-16.51 2.44.96 18.85-4.62 35.58-13.77 52.17-4.85 8.81-11.19 11.99-9.86 22.87q.92 7.52 1.46 15.07c1.81 25.44-8.95 45.82-22.74 65.24-3.99 5.63-3.57 8.99 2.09 12.66ZM400.26 50.02c-67.17-2.43-109.29 42.01-133.28 99.11q-.88 2.11-1.45 4.26a2.29 2.28 8.5 0 0 2.13 2.87c6.15.21 12.75-1.3 18.86-2.06 34.14-4.24 68.5-1.02 102.73 3.32 36.98 4.68 72.91 12.79 107.96 25.54 7.73 2.82 7.16-4.55 6.71-9.63-5.26-59.07-35.65-120.94-103.66-123.41Zm199.8 146.56c7.55-4.55 17.02-10.7 20.04-18.01a1.27 1.25-47 0 0-.03-1.04q-2.79-5.57-6.6-10.5-21.78-28.15-47.44-52.81c-5-4.8-23.88-22.05-30.3-21.74a1.81 1.81 0 0 0-1.43 2.79c5.48 8.48 13.26 18.01 17.76 24.45 15.69 22.45 26.79 44.04 39.17 69.73 1.43 2.97 4.72 9.61 8.83 7.13Zm-345.2 6.39c-48.35-10.16-99.02-10.68-146.97 3.04-36.03 10.31-77.7 35.19-74.14 78.93q1.91 23.48 21.93 37.86c7.96 5.71 29.18 17.55 39.06 14.11a1.24 1.21-86.8 0 0 .71-.65c2.41-5.26 2.35-11.76-3.93-14.39-13.74-5.74-36.42-14.08-39.28-31.14-1.25-7.49-2.07-17.61 1.33-24.68 12.16-25.24 40.84-37.89 66.39-45.21 15.63-4.48 26.92-7.12 40.04-7.56q19.02-.64 38.02.02c15.38.54 30.37 2.64 45.4 5.34q44.24 7.95 88.48 15.88c19.26 3.46 43.45 6.63 58.6 8 39.7 3.59 86.54-.58 125.39-13.08 3.12-1 35.24-11.27 24.04-17.47-14.55-8.07-32.82-13.21-48.87-17.51-44.14-11.83-90.21-22.53-135.06-26.94q-57.11-5.62-114.43 6.89c-4.61 1-15.49 3.53-18.4 7.36a2.38 2.38 0 0 0 1.1 3.68q4.46 1.57 9.65 2.2c23.69 2.86 48.72 5.94 70.83 10.87 32.02 7.15 63.49 14.72 96.27 17.76 22.56 2.1 39.45.76 60.66 1.28q2.5.07 3.16 2.12a.92.9 61.4 0 1-.28.98c-5.92 4.86-19.8 6.52-27.32 7.35-37.87 4.19-74.99-2.04-113.42-10.35q-34.46-7.44-68.96-14.69Zm300.95 39.72c6.35 15.44 21.08 27.14 37.12 30.9 17.67 4.15 23.43-9.91 26.24-23.9.78-3.85 2.06-7.31 4.15-10.12 3.8-5.14 10.01-4.57 14.02-.2 11.84 12.89-5.66 44.32-11.02 57.19-8.43 20.2-7.53 44.45-1.8 64.68 6.06 21.39 22.13 40.58 40.75 52.76 2.2 1.45 9.02 3.92 9.74-.76 2.31-14.97 6.75-29.07 14.85-42.02 10.71-17.12 24.1-35.23 29.83-54.02 3.92-12.87-2.38-23.4-11.35-32.58q-9.14-9.34-18.23-18.73c-7.87-8.13-10.52-16.16-12.94-27.58q-2.62-12.33-5.64-24.56c-2.32-9.35-5.83-17.9-14.91-22.3-11.34-5.51-21.95.54-31.11 8.22-4.29 3.61-8.65 7.22-12.83 10.95-7.23 6.43-13.36 7.21-24.48 9.13-12.53 2.15-29.84 1.91-32.96 17.97q-.47 2.44.57 4.97Zm-412.46 86.32 1.51-3.69q.2-.47.1-.98c-.77-4.04-2.58-9.02-2.26-12.58.64-7.2 6.75-8.97 11.22-13.4 2.14-2.12 1.45-4.54-1.51-5.09q-19.14-3.52-31.12 11.5c-9.14 11.46-8.54 22.41-6.34 36.2.82 5.1-10.08 15.34-13.48 19.23-27.36 31.31-47.87 71.79-36.82 115.16 1.03 4.04.56 6.32-1.94 9.35-4.7 5.73-14.08 16.48-18.23 25.73-20.08 44.75-2.68 90.27 28.19 124.38 2.25 2.49 11.88 12.48 15.52 9.99 1.54-1.06 1.3-2.98.4-4.55-25.2-43.76-33.99-94.28-15.14-142.4 6.3-16.07 12.63-28.08 21.84-45.32 5.11-9.57-5.52-14.09-10.45-19.92q-8.29-9.78-3.88-22.95c2.73-8.16 18.3-16.02 25.68-18.35 8.8-2.78 10.61-8.34 14.55-15.62 3.33-6.18 11.92-17.32 19.57-17.96q8.94-.75 11.16 7.66 1.81 6.9 3.91 13.69c3.99 12.89 17.89 16.06 29.56 12.96a1.71 1.69-76.3 0 0 .83-.51c3.86-4.36 5.04-9.71 5.73-15.33.8-6.62 6.08-11.07 12.78-10.49q3.04.27 3.66 2.93c.58 2.47-1.35 5.75-2.42 8.14-2.79 6.24-2.55 11.56 2.99 16.28 20.19 17.25 49.86 7.85 73.46 3.29q10.94-2.11 22.05-1.88c4.27.09 8.73 2.18 12.74.01 7.3-3.95 13.56-13.69 17.36-18.93 6.05-8.36 15.04-5.93 19.87 1.79 7.56 12.08 9.05 25.69 11.5 39.39.3 1.7 2.14 5.21 3.19 6.55 10.53 13.56 22.8 27.69 25.2 46.46 1.63 12.74-1.94 28.11-5.93 40.93-5.53 17.75-12.25 36.09-16.55 53.72q-5.86 24.07-5.78 48.91c.06 19.07 1.91 38.44 21.76 47.35q4.09 1.84 11.23 4.43.46.17.87-.08c7.57-4.56 7.66-8.6 7.96-16.82q.84-22.91 3.36-45.69c.93-8.42 3.89-18.74 5.17-26.7q3.43-21.22 4.85-42.68c.21-3.27.58-19.21 7.56-14.58q4.43 2.95 4.86 8.79 1.8 25.01-.77 49.97c-3.18 30.84-6.02 60.94-2.72 91.95 2.31 21.79 28.62 43.57 50.3 43.48 7.22-.03 14.34-.14 20.94-2.48 12.19-4.33 23.36-13.98 31.68-24.13 16.56-20.19 16.41-46.51 16.13-71.24a1.43 1.4-26.4 0 1 .31-.88q9.02-11.29 14.36-23.32c12.57-28.33 18.26-58.53 17.84-89.68q-.42-31.54-5.29-62.75c-.71-4.58 3.02-6.74 6.7-4.54 2.58 1.54 4.64 9.67 5.29 12.55 12.05 52.92 12.19 112.17-10.18 163.79-.41.95-.34 2.8-.14 3.73q.12.54.62.79c4.5 2.22 12.26-3.71 15.52-6.53 11.82-10.24 23.24-23.8 29-38.11 5.24-13.04 7.45-28.8 3.41-42.59-2.04-6.98-8.53-13.88-1.66-20.31 12.27-11.5 23.9-29.03 25.33-46.1 2.56-30.67-20.12-47.47-35.83-70.22-9.88-14.28-8.21-28.93-9.73-47.33-.64-7.78-1.97-18.89-12.19-19.64-4.08-.3-9.5 2.52-13.66 4.21-4.7 1.92-3.85-4.63-3.36-6.75 3.4-14.77 6.71-30.64-3.18-43.82-7.85-10.47-19.98-16.2-33.4-16.12-24.55.14-44.12-.18-65.45 2.1-18.34 1.96-37.54 3.95-55.81 3.31-22.88-.79-46.62-3.74-68.45-8.22-12.35-2.54-25.15-4.65-37.07-7.3q-28.96-6.44-58.14-11.84c-22.98-4.24-46.51-6.22-69.85-7.23q-6.01-.26-9.99.71c-6.73 1.65-6.86 9.34-9.03 13.17q-1.96 3.46-9.26 11.01-11.13 11.51-21.91 23.33-1.06 1.16-1.94 3a1.05 1.05 0 0 0 .02.95c.77 1.49 2.34 1.95 4.01 1.6 6.4-1.33 13.14-3.21 19.24-3.51 12.48-.61 25.04 4.5 36.75 7.76 9.35 2.61 4.3-8.84 2.15-11.89-1.95-2.76-6.96-9.04-5.43-12.41a.92.91 9.5 0 1 .75-.53q1.41-.15 3.12.51c20.07 7.67 12.48 25.81 24.26 38.91 6.37 7.09 15.19 3.43 20.03-3.17q2.9-3.96 5.98-8 1.16-1.53 2.65-.32c2.07 1.67 4.12 7.22 5.08 8.55 6.7 9.25 20.39 11.17 27.81 2.05 5.63-6.93 4.69-25.03 16.15-25.63 3.52-.18 5.01 2.14 5.04 5.33q.08 6.8 2.05 13.18c5.3 17.24 34.53 15.15 47.47 13.71 15.6-1.74 30.49-5.87 45.74-9.32 5.23-1.18 11.28-1.55 16.61-1.66 22.64-.49 45.23.37 67.86.57 5.07.05 8.75-.75 11.96-4.32 6.12-6.82.34-14.3-3.04-20.29a2.05 2.04 67.3 0 1 1.22-2.98c8.08-2.28 17.38 10.01 20.42 16.11 4.28 8.61 2.56 15.32 1.18 23.93-.6 3.74 1.37 5.92 4.03 8.11 15.77 12.96 31.49 26.76 43.35 45.39 1.97 3.1 11.58 18.75 5.35 19.83-2.85.49-6.89-4.21-8.6-6.33-11.1-13.8-24.86-22.36-39.83-31.91a7.11 7.08-85.7 0 1-2.7-3.15c-1.73-3.93-3.13-8.83-5.15-12.26-8.75-14.81-27.83-20.9-44.31-19.62q-.51.04-.59.55c-2.86 17.81-22.82 24.34-38.52 23.55-6.89-.35-18.04-1.18-21.04-8.24-1.34-3.13.31-6.69.99-9.73q.1-.44-.05-.85c-2.91-7.87-12.91 3.84-15.28 7.33q-2.66 3.9-2.27 8.19c1.38 15.2 28.34 15.22 38.43 14.99 19.15-.44 38.03-14.84 53.96-24.84q3.17-2 6.64-.61a.98.97-86.9 0 1 .57.64q2.07 7.59-4.26 11.01-5.04 2.73-8.28 5.49c-7.32 6.22-6.81 15.35-18.43 16.64-11.58 1.28-20.37 2.88-28.07 11.66-1.82 2.07-3.3 4.95-2.68 7.5q2.37 9.72 7.65 24.29c3.38 9.3 4.06 17.97 3.57 27.51q-1.08 21.23-6.06 41.9-.64 2.65-2.06 4.17a2.07 2.07 0 0 1-3.06-.06q-3.15-3.6-2.91-8.59.23-4.96-1.07-23.29-2.08-29.07-15.9-54.62c-15.97-29.54-42.64-42.35-73.01-53.01-38.56-13.55-76.77-18.9-118.53-17.87-21.96.53-46.17 7.84-67.29 15.37a1.93 1.93 0 0 1-2.43-2.56Zm8.825-13.77a6.63 5.02 132.1 0 0 8.17-1.555 6.63 5.02 132.1 0 0 .72-8.284 6.63 5.02 132.1 0 0-8.17 1.553 6.63 5.02 132.1 0 0-.72 8.285Zm272.603 2.411a7.65 5.45-27.3 0 0-9.298-1.334 7.65 5.45-27.3 0 0-4.298 8.352 7.65 5.45-27.3 0 0 9.298 1.334 7.65 5.45-27.3 0 0 4.298-8.352ZM140.5 368.85q-1.15-.16-2.05.61c-4.13 3.5-8.49 9.98-2.88 14.65q.4.33.87.11c5.42-2.49 6.99-9.41 5.07-14.56a1.28 1.25 83.2 0 0-1.01-.81Zm195.44 40.21c4.67 3.66 10.58-.32 12.52-4.78 2.34-5.41-.37-11.81-3.33-16.63-4.62-7.51-10.86 12.95-11.55 15.38q-.97 3.43 2.36 6.03Zm-221.5 197.25q3.36 3.43 6.57 5.15c2.18 1.16 4.12.19 3.9-2.45-.54-6.59-3.76-14.08-5.75-20.44-2.42-7.74-10.58-42.64-3.41-47.72q.46-.33.9.03c5.35 4.36 7.25 22.29 8.85 27.99 6.58 23.5 21.47 49.5 44.24 60.65 29.68 14.55 61.28 16.87 89.15-2.68 3.73-2.62 6.92-6.4 10.2-9.77 2.52-2.59 6.16-5 8.42-.58q7.67 15.01 20.08 24.18c12.63 9.32 36.68 15.56 50.82 6.21 3.24-2.14 2.76-6.78 2.38-10.86q-1.41-14.99-3.3-29.93c-.58-4.59-.41-10.1.16-14.66 2.99-23.97 9.16-46.17 16.15-70.42.8-2.74 1.85-7.55-.08-10.05-3.78-4.91-11.16-7.1-17.22-8.38-13.97-2.95-26.56-8.89-38.27-18.06-12.27-9.59-21.72-20.05-34.02-28.23-8.93-5.94-20.22-10.52-30.69-15.01q-1.59-.69-2.71-2.33c-1.05-1.54-.19-3.34 1.52-3.64 12.01-2.09 38.26 10.91 50.2 17.09 19.37 10.03 36.77 23.24 56.37 32.97 6.05 3 18.61 7.3 23.46.79q2-2.68 2.66-8.65c3.28-29.64-32.38-59.47-59.09-63.18-15.35-2.14-30.89-2.14-47.34-.76-14.78 1.24-28.66 2.86-44.2.94-18.31-2.26-37.59-8.09-55.73-12.58-15.56-3.84-33.04-3.93-47.35-3.38q-13.65.52-23.04 11.49c-3.74 4.36-3.39 10.6.72 14.78 10.76 10.94 32.85 4.7 46.03 1.5 6.13-1.48 27.37-5.21 32.19-1.25 6.49 5.35-7.38 9.2-10.34 9.73-12.71 2.3-25.23 3.91-37.06 8.78q-22.73 9.35-34.05 31.52c-10.26 20.12-12.08 38.22-11.73 60.97q.19 12.2 1.57 19.13c3.75 18.96 15.45 37.45 28.84 51.11Zm477.07 42.06c-1.66 6.37 17 9.25 20.87 9.32a1.76 1.75-71 0 1 1.37 2.81c-2.6 3.46-14.02 2.15-17.98 1.75-6.55-.65-7.8 8.44-.95 9.16q22.38 2.35 44.67-4.66c1.92-.6 6.46-2.53 6.74-4.85.82-6.91-22.54-26.11-28.12-30.28-5.09-3.81-12.8-9.52-18.02-1.99q-5.95 8.59-8.58 18.74ZM63.97 718.23c-4.03 11.77 37.92 2.82 42.49 1.5 7.73-2.23 17.53-6.02 12.56-16.5q-6.6-13.9-17.58-23.69c-2.06-1.84-5.2-4.84-8.03-4.1-3.52.92-8.41 6.46-10.71 9.27q-12.41 15.06-18.73 33.52Zm192.16-1.72c27.91 7.56 58.42 8.16 87.22 4.46q9.42-1.21 19.54-4.15c16.07-4.67 29.61-9.67 42.87-17.79q7.23-4.43 9.44-7.59c2.41-3.45-1.56-10.16-3.65-12.75-2.12-2.63-7.42.17-9.73 1.41-41.7 22.57-94.6 29.76-141.03 19.46-28.15-6.25-44.83-10.98-69.39-22.12-2.15-.98-8.99-3.23-9.43.64-.78 6.66 3.26 8.48 8.17 11.25q14.85 8.38 30.45 15.31c2.26 1 4.75 1.48 6.83 2.31q14.07 5.6 28.71 9.56Zm274.08 34.86c-6.1-.59-12.78-5.16-17.94-8.79-3.55-2.5-7.23-4.23-10.45-.61-3.23 3.65 2.04 8.36 4.82 10.37 14.99 10.83 33.66 16.13 51.79 18.53 1.88.25 4.37.56 5.83-.84 5.72-5.49-9.5-38.6-13.2-45.25-3.3-5.94-9.6-17.6-17.81-15.6-5.89 1.43-17.97 7.97-19.67 14.82-2.17 8.72 12.45 20.17 17.42 25.8q1.59 1.8-.79 1.57Zm-374.23 56.22q1.93.44 2.52.21 25.86-10.39 46.87-28.66c2.82-2.46 8.79-8.28 8.43-12.15-1.46-15.59-42.45-44.62-51.49-25.42-6.23 13.25-8.26 32.27-8.98 46.92-.21 4.18-.48 15.24 1.87 18.58q.29.41.78.52Zm255.72-7.57c-6.81-.63-16.82-24.24-18.97-30.5-1.35-3.95-5.38-5.29-8.3-2.05-4.53 5.02-1.29 13.52 2.09 18.51q16.64 24.55 41.88 39.9c3.49 2.13 7.88 3.61 10.37-.32q3.64-5.71 7.72-18.44 6.23-19.41 8.05-39.68c1.08-11.97-4.37-19.87-15.79-21.74q-14.22-2.33-28.09 3.69c-3.99 1.74-11.48 7.2-11.18 12.38.69 11.87 7.02 23.63 12.02 34.51q.71 1.53.76 3.21.02.58-.56.53Zm-131.8 12.42a1.17 1.17 0 0 1-2.19.1c-1.69-3.84-2.65-7.79-4.18-11.65-3.75-9.4-3.6-19.82-5.38-29.64q-.13-.77-.86-.48c-3.58 1.44-7.93 4.3-7.78 8.62.78 22.33 13.7 46.95 27.15 63.22 4 4.84 6.56 1.56 9.81-1.41q25.39-23.21 37.17-55.64.94-2.59.07-4.52c-6.18-13.66-23.45-18.54-37.26-19.03q-6.18-.22-10.06 1.63c-3.79 1.81-9.06 6.47-9.4 11.11q-1.17 15.87 2.93 31.96.81 3.17-.02 5.73Z"/><path fill="#cdcbcc" d="M266.98 149.13c23.99-57.1 66.11-101.54 133.28-99.11 68.01 2.47 98.4 64.34 103.66 123.41.45 5.08 1.02 12.45-6.71 9.63-35.05-12.75-70.98-20.86-107.96-25.54-34.23-4.34-68.59-7.56-102.73-3.32-6.11.76-12.71 2.27-18.86 2.06a2.29 2.28 8.5 0 1-2.13-2.87q.57-2.15 1.45-4.26Zm68.99-58.91c-14.44 21.63-3.08 42.36 19.86 49.17 8.28 2.46 17.55 2.19 26.31 1.02 3.07-.41 7.39-1.92 11.41-1.94 2.6-.01 5.63.98 8.46 1.3a2.92 2.91-77.7 0 0 3.1-1.99q5.61-17 8.99-34.57a.95.93 24.9 0 0-.35-.92c-1.78-1.36-6.57-3.01-7.37-4.74-2.4-5.16 14.21-7.08 4.41-16.14-7.97-7.38-17.88-12.17-28.87-12.25q-10.6-.07-14.4.81c-12.18 2.8-24.53 9.74-31.55 20.25Z"/><path fill="#031e4d" d="M335.97 90.22c7.02-10.51 19.37-17.45 31.55-20.25q3.8-.88 14.4-.81c10.99.08 20.9 4.87 28.87 12.25 9.8 9.06-6.81 10.98-4.41 16.14.8 1.73 5.59 3.38 7.37 4.74a.95.93 24.9 0 1 .35.92q-3.38 17.57-8.99 34.57a2.92 2.91-77.7 0 1-3.1 1.99c-2.83-.32-5.86-1.31-8.46-1.3-4.02.02-8.34 1.53-11.41 1.94-8.76 1.17-18.03 1.44-26.31-1.02-22.94-6.81-34.3-27.54-19.86-49.17Zm39.94 19.5q-1.78-2.41-.87-4.45c3.18-7.09 10.35-6.5 16.93-6.48 5.09.02 5.19-5.37 2.56-8.07q-13.96-14.32-30.84-2.58c-11.85 8.25-17.39 22.82-3.99 33.22 7.5 5.82 21.62 4.54 28.47-1.93 7.9-7.44-8.82-8.51-11.46-9.18a1.49 1.41-10 0 1-.8-.53Z"/><path fill="#cdcbcc" d="M376.71 110.25c2.64.67 19.36 1.74 11.46 9.18-6.85 6.47-20.97 7.75-28.47 1.93-13.4-10.4-7.86-24.97 3.99-33.22q16.88-11.74 30.84 2.58c2.63 2.7 2.53 8.09-2.56 8.07-6.58-.02-13.75-.61-16.93 6.48q-.91 2.04.87 4.45a1.49 1.41-10 0 0 .8.53ZM620.1 178.57c-3.02 7.31-12.49 13.46-20.04 18.01-4.11 2.48-7.4-4.16-8.83-7.13-12.38-25.69-23.48-47.28-39.17-69.73-4.5-6.44-12.28-15.97-17.76-24.45a1.81 1.81 0 0 1 1.43-2.79c6.42-.31 25.3 16.94 30.3 21.74q25.66 24.66 47.44 52.81 3.81 4.93 6.6 10.5a1.27 1.25-47 0 1 .03 1.04ZM254.86 202.97q34.5 7.25 68.96 14.69c38.43 8.31 75.55 14.54 113.42 10.35 7.52-.83 21.4-2.49 27.32-7.35a.92.9 61.4 0 0 .28-.98q-.66-2.05-3.16-2.12c-21.21-.52-38.1.82-60.66-1.28-32.78-3.04-64.25-10.61-96.27-17.76-22.11-4.93-47.14-8.01-70.83-10.87q-5.19-.63-9.65-2.2a2.38 2.38 0 0 1-1.1-3.68c2.91-3.83 13.79-6.36 18.4-7.36q57.32-12.51 114.43-6.89c44.85 4.41 90.92 15.11 135.06 26.94 16.05 4.3 34.32 9.44 48.87 17.51 11.2 6.2-20.92 16.47-24.04 17.47-38.85 12.5-85.69 16.67-125.39 13.08-15.15-1.37-39.34-4.54-58.6-8q-44.24-7.93-88.48-15.88c-15.03-2.7-30.02-4.8-45.4-5.34q-19-.66-38.02-.02c-13.12.44-24.41 3.08-40.04 7.56-25.55 7.32-54.23 19.97-66.39 45.21-3.4 7.07-2.58 17.19-1.33 24.68 2.86 17.06 25.54 25.4 39.28 31.14 6.28 2.63 6.34 9.13 3.93 14.39a1.24 1.21-86.8 0 1-.71.65c-9.88 3.44-31.1-8.4-39.06-14.11q-20.02-14.38-21.93-37.86c-3.56-43.74 38.11-68.62 74.14-78.93 47.95-13.72 98.62-13.2 146.97-3.04ZM592.93 273.59c-16.04-3.76-30.77-15.46-37.12-30.9q-1.04-2.53-.57-4.97c3.12-16.06 20.43-15.82 32.96-17.97 11.12-1.92 17.25-2.7 24.48-9.13 4.18-3.73 8.54-7.34 12.83-10.95 9.16-7.68 19.77-13.73 31.11-8.22 9.08 4.4 12.59 12.95 14.91 22.3q3.02 12.23 5.64 24.56c2.42 11.42 5.07 19.45 12.94 27.58q9.09 9.39 18.23 18.73c8.97 9.18 15.27 19.71 11.35 32.58-5.73 18.79-19.12 36.9-29.83 54.02-8.1 12.95-12.54 27.05-14.85 42.02-.72 4.68-7.54 2.21-9.74.76-18.62-12.18-34.69-31.37-40.75-52.76-5.73-20.23-6.63-44.48 1.8-64.68 5.36-12.87 22.86-44.3 11.02-57.19-4.01-4.37-10.22-4.94-14.02.2-2.09 2.81-3.37 6.27-4.15 10.12-2.81 13.99-8.57 28.05-26.24 23.9Zm59.31 113.92c1.84 2.36 5.6 6.72 8.56 7.44a.68.67 4.8 0 0 .83-.7c-.63-9.93-4.52-21-7.14-30.64-3.28-12.04-2.72-25.81-2.03-38.14.94-16.67 5.4-34.47 8.42-51.29.51-2.83 7.02-35.84-3.71-31.67q-.48.19-.68.67-.65 1.59-1 4.07c-2.84 19.89-10.64 40.32-16.46 59.76-4.48 14.96-5.21 27.76-4.13 43.92.83 12.59 10.01 27.16 17.34 36.58Z"/><path fill="#cdcbcc" d="M143.35 329.01a1.93 1.93 0 0 0 2.43 2.56c21.12-7.53 45.33-14.84 67.29-15.37 41.76-1.03 79.97 4.32 118.53 17.87 30.37 10.66 57.04 23.47 73.01 53.01q13.82 25.55 15.9 54.62 1.3 18.33 1.07 23.29-.24 4.99 2.91 8.59a2.07 2.07 0 0 0 3.06.06q1.42-1.52 2.06-4.17 4.98-20.67 6.06-41.9c.49-9.54-.19-18.21-3.57-27.51q-5.28-14.57-7.65-24.29c-.62-2.55.86-5.43 2.68-7.5 7.7-8.78 16.49-10.38 28.07-11.66 11.62-1.29 11.11-10.42 18.43-16.64q3.24-2.76 8.28-5.49 6.33-3.42 4.26-11.01a.98.97-86.9 0 0-.57-.64q-3.47-1.39-6.64.61c-15.93 10-34.81 24.4-53.96 24.84-10.09.23-37.05.21-38.43-14.99q-.39-4.29 2.27-8.19c2.37-3.49 12.37-15.2 15.28-7.33q.15.41.05.85c-.68 3.04-2.33 6.6-.99 9.73 3 7.06 14.15 7.89 21.04 8.24 15.7.79 35.66-5.74 38.52-23.55q.08-.51.59-.55c16.48-1.28 35.56 4.81 44.31 19.62 2.02 3.43 3.42 8.33 5.15 12.26a7.11 7.08-85.7 0 0 2.7 3.15c14.97 9.55 28.73 18.11 39.83 31.91 1.71 2.12 5.75 6.82 8.6 6.33 6.23-1.08-3.38-16.73-5.35-19.83-11.86-18.63-27.58-32.43-43.35-45.39-2.66-2.19-4.63-4.37-4.03-8.11 1.38-8.61 3.1-15.32-1.18-23.93-3.04-6.1-12.34-18.39-20.42-16.11a2.05 2.04 67.3 0 0-1.22 2.98c3.38 5.99 9.16 13.47 3.04 20.29-3.21 3.57-6.89 4.37-11.96 4.32-22.63-.2-45.22-1.06-67.86-.57-5.33.11-11.38.48-16.61 1.66-15.25 3.45-30.14 7.58-45.74 9.32-12.94 1.44-42.17 3.53-47.47-13.71q-1.97-6.38-2.05-13.18c-.03-3.19-1.52-5.51-5.04-5.33-11.46.6-10.52 18.7-16.15 25.63-7.42 9.12-21.11 7.2-27.81-2.05-.96-1.33-3.01-6.88-5.08-8.55q-1.49-1.21-2.65.32-3.08 4.04-5.98 8c-4.84 6.6-13.66 10.26-20.03 3.17-11.78-13.1-4.19-31.24-24.26-38.91q-1.71-.66-3.12-.51a.92.91 9.5 0 0-.75.53c-1.53 3.37 3.48 9.65 5.43 12.41 2.15 3.05 7.2 14.5-2.15 11.89-11.71-3.26-24.27-8.37-36.75-7.76-6.1.3-12.84 2.18-19.24 3.51-1.67.35-3.24-.11-4.01-1.6a1.05 1.05 0 0 1-.02-.95q.88-1.84 1.94-3 10.78-11.82 21.91-23.33 7.3-7.55 9.26-11.01c2.17-3.83 2.3-11.52 9.03-13.17q3.98-.97 9.99-.71c23.34 1.01 46.87 2.99 69.85 7.23q29.18 5.4 58.14 11.84c11.92 2.65 24.72 4.76 37.07 7.3 21.83 4.48 45.57 7.43 68.45 8.22 18.27.64 37.47-1.35 55.81-3.31 21.33-2.28 40.9-1.96 65.45-2.1 13.42-.08 25.55 5.65 33.4 16.12 9.89 13.18 6.58 29.05 3.18 43.82-.49 2.12-1.34 8.67 3.36 6.75 4.16-1.69 9.58-4.51 13.66-4.21 10.22.75 11.55 11.86 12.19 19.64 1.52 18.4-.15 33.05 9.73 47.33 15.71 22.75 38.39 39.55 35.83 70.22-1.43 17.07-13.06 34.6-25.33 46.1-6.87 6.43-.38 13.33 1.66 20.31 4.04 13.79 1.83 29.55-3.41 42.59-5.76 14.31-17.18 27.87-29 38.11-3.26 2.82-11.02 8.75-15.52 6.53q-.5-.25-.62-.79c-.2-.93-.27-2.78.14-3.73 22.37-51.62 22.23-110.87 10.18-163.79-.65-2.88-2.71-11.01-5.29-12.55-3.68-2.2-7.41-.04-6.7 4.54q4.87 31.21 5.29 62.75c.42 31.15-5.27 61.35-17.84 89.68q-5.34 12.03-14.36 23.32a1.43 1.4-26.4 0 0-.31.88c.28 24.73.43 51.05-16.13 71.24-8.32 10.15-19.49 19.8-31.68 24.13-6.6 2.34-13.72 2.45-20.94 2.48-21.68.09-47.99-21.69-50.3-43.48-3.3-31.01-.46-61.11 2.72-91.95q2.57-24.96.77-49.97-.43-5.84-4.86-8.79c-6.98-4.63-7.35 11.31-7.56 14.58q-1.42 21.46-4.85 42.68c-1.28 7.96-4.24 18.28-5.17 26.7q-2.52 22.78-3.36 45.69c-.3 8.22-.39 12.26-7.96 16.82q-.41.25-.87.08-7.14-2.59-11.23-4.43c-19.85-8.91-21.7-28.28-21.76-47.35q-.08-24.84 5.78-48.91c4.3-17.63 11.02-35.97 16.55-53.72 3.99-12.82 7.56-28.19 5.93-40.93-2.4-18.77-14.67-32.9-25.2-46.46-1.05-1.34-2.89-4.85-3.19-6.55-2.45-13.7-3.94-27.31-11.5-39.39-4.83-7.72-13.82-10.15-19.87-1.79-3.8 5.24-10.06 14.98-17.36 18.93-4.01 2.17-8.47.08-12.74-.01q-11.11-.23-22.05 1.88c-23.6 4.56-53.27 13.96-73.46-3.29-5.54-4.72-5.78-10.04-2.99-16.28 1.07-2.39 3-5.67 2.42-8.14q-.62-2.66-3.66-2.93c-6.7-.58-11.98 3.87-12.78 10.49-.69 5.62-1.87 10.97-5.73 15.33a1.71 1.69-76.3 0 1-.83.51c-11.67 3.1-25.57-.07-29.56-12.96q-2.1-6.79-3.91-13.69-2.22-8.41-11.16-7.66c-7.65.64-16.24 11.78-19.57 17.96-3.94 7.28-5.75 12.84-14.55 15.62-7.38 2.33-22.95 10.19-25.68 18.35q-4.41 13.17 3.88 22.95c4.93 5.83 15.56 10.35 10.45 19.92-9.21 17.24-15.54 29.25-21.84 45.32-18.85 48.12-10.06 98.64 15.14 142.4.9 1.57 1.14 3.49-.4 4.55-3.64 2.49-13.27-7.5-15.52-9.99-30.87-34.11-48.27-79.63-28.19-124.38 4.15-9.25 13.53-20 18.23-25.73 2.5-3.03 2.97-5.31 1.94-9.35-11.05-43.37 9.46-83.85 36.82-115.16 3.4-3.89 14.3-14.13 13.48-19.23-2.2-13.79-2.8-24.74 6.34-36.2q11.98-15.02 31.12-11.5c2.96.55 3.65 2.97 1.51 5.09-4.47 4.43-10.58 6.2-11.22 13.4-.32 3.56 1.49 8.54 2.26 12.58q.1.51-.1.98l-1.51 3.69Zm99.33 16.83c6.16 3.58-6.06 12.49-7.52 15.31a1 1 0 0 0-.02.87q1.23 2.65 4.16 2.93 22.99 2.19 44.12-6.92c6.01-2.59 10.72-6.31 8.95-13.23-2.69-10.57-21.06-14.98-30.16-17.13-18.43-4.35-38.96-3.97-57.65-1.73-14.22 1.71-25.16 3.59-35.74 11.06-6.15 4.33-5.21 10.43-.31 15.35 2.31 2.32 15.72 13.52 14.71 2.15q-.37-4.14-1.3-8.9a1.51 1.5-13.5 0 1 1.07-1.74c2.54-.71 4.52.63 5.89 2.88 2.95 4.85 8.32 11.47 14.3 12.39 6.15.94 12.95 1.06 18.08-3.12 4.21-3.43 15.82-13.43 21.42-10.17Z"/><path fill="#031e4d" d="M660.8 394.95c-2.96-.72-6.72-5.08-8.56-7.44-7.33-9.42-16.51-23.99-17.34-36.58-1.08-16.16-.35-28.96 4.13-43.92 5.82-19.44 13.62-39.87 16.46-59.76q.35-2.48 1-4.07.2-.48.68-.67c10.73-4.17 4.22 28.84 3.71 31.67-3.02 16.82-7.48 34.62-8.42 51.29-.69 12.33-1.25 26.1 2.03 38.14 2.62 9.64 6.51 20.71 7.14 30.64a.68.67 4.8 0 1-.83.7Z"/><ellipse fill="#cdcbcc" rx="6.63" ry="5.02" transform="rotate(132.1 9.39 189.944)"/><ellipse fill="#cdcbcc" rx="7.65" ry="5.45" transform="rotate(-27.3 870.223 -699.995)"/><path fill="#031e4d" d="M235.16 361.15c1.46-2.82 13.68-11.73 7.52-15.31-5.6-3.26-17.21 6.74-21.42 10.17-5.13 4.18-11.93 4.06-18.08 3.12-5.98-.92-11.35-7.54-14.3-12.39-1.37-2.25-3.35-3.59-5.89-2.88a1.51 1.5-13.5 0 0-1.07 1.74q.93 4.76 1.3 8.9c1.01 11.37-12.4.17-14.71-2.15-4.9-4.92-5.84-11.02.31-15.35 10.58-7.47 21.52-9.35 35.74-11.06 18.69-2.24 39.22-2.62 57.65 1.73 9.1 2.15 27.47 6.56 30.16 17.13 1.77 6.92-2.94 10.64-8.95 13.23q-21.13 9.11-44.12 6.92-2.93-.28-4.16-2.93a1 1 0 0 1 .02-.87Z"/><path fill="#cdcbcc" d="M140.5 368.85a1.28 1.25 83.2 0 1 1.01.81c1.92 5.15.35 12.07-5.07 14.56q-.47.22-.87-.11c-5.61-4.67-1.25-11.15 2.88-14.65q.9-.77 2.05-.61ZM335.94 409.06q-3.33-2.6-2.36-6.03c.69-2.43 6.93-22.89 11.55-15.38 2.96 4.82 5.67 11.22 3.33 16.63-1.94 4.46-7.85 8.44-12.52 4.78ZM114.44 606.31c-13.39-13.66-25.09-32.15-28.84-51.11q-1.38-6.93-1.57-19.13c-.35-22.75 1.47-40.85 11.73-60.97q11.32-22.17 34.05-31.52c11.83-4.87 24.35-6.48 37.06-8.78 2.96-.53 16.83-4.38 10.34-9.73-4.82-3.96-26.06-.23-32.19 1.25-13.18 3.2-35.27 9.44-46.03-1.5-4.11-4.18-4.46-10.42-.72-14.78q9.39-10.97 23.04-11.49c14.31-.55 31.79-.46 47.35 3.38 18.14 4.49 37.42 10.32 55.73 12.58 15.54 1.92 29.42.3 44.2-.94 16.45-1.38 31.99-1.38 47.34.76 26.71 3.71 62.37 33.54 59.09 63.18q-.66 5.97-2.66 8.65c-4.85 6.51-17.41 2.21-23.46-.79-19.6-9.73-37-22.94-56.37-32.97-11.94-6.18-38.19-19.18-50.2-17.09-1.71.3-2.57 2.1-1.52 3.64q1.12 1.64 2.71 2.33c10.47 4.49 21.76 9.07 30.69 15.01 12.3 8.18 21.75 18.64 34.02 28.23 11.71 9.17 24.3 15.11 38.27 18.06 6.06 1.28 13.44 3.47 17.22 8.38 1.93 2.5.88 7.31.08 10.05-6.99 24.25-13.16 46.45-16.15 70.42-.57 4.56-.74 10.07-.16 14.66q1.89 14.94 3.3 29.93c.38 4.08.86 8.72-2.38 10.86-14.14 9.35-38.19 3.11-50.82-6.21q-12.41-9.17-20.08-24.18c-2.26-4.42-5.9-2.01-8.42.58-3.28 3.37-6.47 7.15-10.2 9.77-27.87 19.55-59.47 17.23-89.15 2.68-22.77-11.15-37.66-37.15-44.24-60.65-1.6-5.7-3.5-23.63-8.85-27.99q-.44-.36-.9-.03c-7.17 5.08.99 39.98 3.41 47.72 1.99 6.36 5.21 13.85 5.75 20.44.22 2.64-1.72 3.61-3.9 2.45q-3.21-1.72-6.57-5.15ZM612.38 657.69c-3.87-.07-22.53-2.95-20.87-9.32q2.63-10.15 8.58-18.74c5.22-7.53 12.93-1.82 18.02 1.99 5.58 4.17 28.94 23.37 28.12 30.28-.28 2.32-4.82 4.25-6.74 4.85q-22.29 7.01-44.67 4.66c-6.85-.72-5.6-9.81.95-9.16 3.96.4 15.38 1.71 17.98-1.75a1.76 1.75-71 0 0-1.37-2.81ZM106.46 719.73c-4.57 1.32-46.52 10.27-42.49-1.5q6.32-18.46 18.73-33.52c2.3-2.81 7.19-8.35 10.71-9.27 2.83-.74 5.97 2.26 8.03 4.1q10.98 9.79 17.58 23.69c4.97 10.48-4.83 14.27-12.56 16.5ZM256.13 716.51q-14.64-3.96-28.71-9.56c-2.08-.83-4.57-1.31-6.83-2.31q-15.6-6.93-30.45-15.31c-4.91-2.77-8.95-4.59-8.17-11.25.44-3.87 7.28-1.62 9.43-.64 24.56 11.14 41.24 15.87 69.39 22.12 46.43 10.3 99.33 3.11 141.03-19.46 2.31-1.24 7.61-4.04 9.73-1.41 2.09 2.59 6.06 9.3 3.65 12.75q-2.21 3.16-9.44 7.59c-13.26 8.12-26.8 13.12-42.87 17.79q-10.12 2.94-19.54 4.15c-28.8 3.7-59.31 3.1-87.22-4.46ZM530.21 751.37q2.38.23.79-1.57c-4.97-5.63-19.59-17.08-17.42-25.8 1.7-6.85 13.78-13.39 19.67-14.82 8.21-2 14.51 9.66 17.81 15.6 3.7 6.65 18.92 39.76 13.2 45.25-1.46 1.4-3.95 1.09-5.83.84-18.13-2.4-36.8-7.7-51.79-18.53-2.78-2.01-8.05-6.72-4.82-10.37 3.22-3.62 6.9-1.89 10.45.61 5.16 3.63 11.84 8.2 17.94 8.79ZM155.2 807.07c-2.35-3.34-2.08-14.4-1.87-18.58.72-14.65 2.75-33.67 8.98-46.92 9.04-19.2 50.03 9.83 51.49 25.42.36 3.87-5.61 9.69-8.43 12.15q-21.01 18.27-46.87 28.66-.59.23-2.52-.21-.49-.11-.78-.52ZM412.26 799.49q-.05-1.68-.76-3.21c-5-10.88-11.33-22.64-12.02-34.51-.3-5.18 7.19-10.64 11.18-12.38q13.87-6.02 28.09-3.69c11.42 1.87 16.87 9.77 15.79 21.74q-1.82 20.27-8.05 39.68-4.08 12.73-7.72 18.44c-2.49 3.93-6.88 2.45-10.37.32q-25.24-15.35-41.88-39.9c-3.38-4.99-6.62-13.49-2.09-18.51 2.92-3.24 6.95-1.9 8.3 2.05 2.15 6.26 12.16 29.87 18.97 30.5q.58.05.56-.53ZM279.9 812.44q.83-2.56.02-5.73-4.1-16.09-2.93-31.96c.34-4.64 5.61-9.3 9.4-11.11q3.88-1.85 10.06-1.63c13.81.49 31.08 5.37 37.26 19.03q.87 1.93-.07 4.52-11.78 32.43-37.17 55.64c-3.25 2.97-5.81 6.25-9.81 1.41-13.45-16.27-26.37-40.89-27.15-63.22-.15-4.32 4.2-7.18 7.78-8.62q.73-.29.86.48c1.78 9.82 1.63 20.24 5.38 29.64 1.53 3.86 2.49 7.81 4.18 11.65a1.17 1.17 0 0 0 2.19-.1Z"/></svg>